<svg id="layer" xmlns="http://www.w3.org/2000/svg" viewBox="0 0 1080 1080">
    <defs>
        <style>
            .cls-1 {
                fill: #3f46f3;

            }

            .cls-1:hover {
                fill: #3ff3b2;
            }

            #four {
                animation: rot 7s linear infinite;
                transform-origin: 540px;
            }

            #inner {
                animation: rot-rev 7s linear infinite;
                transform-origin: 540px;
            }

            #inner path:hover {
                fill: #3ff3b2;

            }

            #inner path {
                fill: #2b2b2b
            }


            @keyframes rot-rev {
                0% {
                    transform: rotate(360deg);
                    transform-origin:
                }

                100% {
                    transform: rotate(0deg)
                }
            }

            @keyframes rot {
                0% {
                    transform: rotate(0deg);
                    transform-origin:
                }

                100% {
                    transform: rotate(360deg)
                }
            }
        </style>
    </defs>
    <g id="four">
        <path class="cls-1"
            d="M771.23,880h-7.36v6.54h-3.13v6h3.13v16.65h9.84l9.94-17.11v-5.52H771.23Zm5,12.52-2.66,5c-.83,1.74-1.66,3.49-2.4,5.24H771c.09-2,.28-4.92.28-6.9v-3.31Z" />
        <path class="cls-1"
            d="M747,879.44c-6.44,0-10.85,5.29-10.85,15.28s4.41,15,10.85,15,10.86-5,10.86-15S753.43,879.44,747,879.44Zm0,24.2c-1.84,0-3.4-1.19-3.4-8.92s1.56-9.2,3.4-9.2,3.41,1.47,3.41,9.2S748.83,903.64,747,903.64Z" />
        <path class="cls-1"
            d="M720.9,880h-7.36v6.54h-3.13v6h3.13v16.65h9.85l9.93-17.11v-5.52H720.9Zm5,12.52-2.67,5c-.82,1.74-1.65,3.49-2.39,5.24h-.18c.09-2,.27-4.92.27-6.9v-3.31Z" />
        <path class="cls-1"
            d="M700.45,918.57l-7.22-1.43-1.27,6.4-3.07-.61-1.17,5.87,3.07.61-3.25,16.33,9.66,1.92,13.08-14.84,1.08-5.42L699.18,925Zm2.43,13.24-3.58,4.36c-1.16,1.55-2.31,3.1-3.37,4.67l-.18,0c.47-1.92,1.23-4.78,1.61-6.72l.65-3.24Z" />
        <path class="cls-1"
            d="M676.78,913.3c-6.31-1.26-11.68,3.07-13.62,12.86s1.4,15.57,7.72,16.83,11.63-2.8,13.57-12.59S683.1,914.56,676.78,913.3Zm.36,15.65c-1.5,7.58-3.27,8.44-5.08,8.09s-3.1-1.84-1.59-9.42,3.32-8.72,5.13-8.36S678.65,921.37,677.14,929Z" />
        <path class="cls-1"
            d="M651.1,908.75l-7.22-1.43-1.28,6.41-3.07-.61L638.37,919l3.07.61-3.25,16.34,9.65,1.92L660.93,923l1.07-5.42-12.18-2.42ZM653.53,922l-3.59,4.35c-1.15,1.55-2.31,3.11-3.37,4.68l-.18,0c.48-1.92,1.23-4.77,1.62-6.71l.64-3.25Z" />
        <path class="cls-1"
            d="M623.51,942.6l-6.8-2.81-2.5,6-2.89-1.2L609,950.15l2.89,1.2-6.38,15.38,9.1,3.77,15.73-12,2.11-5.1L621,948.64Zm-.19,13.46L619,959.63c-1.43,1.3-2.87,2.6-4.22,3.93l-.17-.07c.84-1.79,2.14-4.44,2.9-6.27l1.27-3.06Z" />
        <path class="cls-1"
            d="M601.33,932.81c-6-2.46-12.06.74-15.88,10s-1.66,15.55,4.3,18,12-.48,15.77-9.7S607.28,935.28,601.33,932.81Zm-2.7,15.42c-3,7.14-4.86,7.65-6.56,6.94s-2.69-2.41.27-9.55,5-7.9,6.67-7.2S601.59,941.09,598.63,948.23Z" />
        <path class="cls-1"
            d="M586,934.13l-11.48-4.75,2.5-6-6.8-2.81-2.5,6-2.89-1.19-2.29,5.52,2.89,1.2-6.37,15.38,9.09,3.77,15.74-12Zm-13.54,6.25c-1.44,1.29-2.87,2.59-4.22,3.92l-.17-.07c.84-1.79,2.14-4.44,2.9-6.27l1.26-3.06,4.59,1.91Z" />
        <path class="cls-1"
            d="M543.36,951.16l-6.12-4.09-3.62,5.43L531,950.76l-3.32,5,2.6,1.74L521,971.32l8.19,5.47L547,968.08l3.06-4.59-10.32-6.9Zm-2.82,13.16-5,2.65c-1.65,1-3.31,2-4.9,3l-.15-.1c1.17-1.59,3-3.94,4.06-5.58l1.84-2.76Z" />
        <path class="cls-1"
            d="M523.52,937.23c-5.36-3.58-12-1.63-17.52,6.67s-4.66,14.92.7,18.5,11.81,1.86,17.36-6.44S528.87,940.81,523.52,937.23Zm-5.66,14.59c-4.29,6.43-6.26,6.55-7.79,5.53s-2.17-2.89,2.13-9.31,6.41-6.78,7.94-5.76S522.15,945.39,517.86,951.82Z" />
        <path class="cls-1"
            d="M508.22,935.53l-10.33-6.9,3.63-5.43-6.12-4.09-3.63,5.43-2.6-1.74-3.32,5,2.6,1.73-9.25,13.85,8.18,5.47,17.77-8.71ZM493.72,939c-1.66,1-3.32,2-4.9,3l-.15-.1c1.17-1.59,3-3.94,4.06-5.58l1.84-2.76,4.13,2.76Z" />
        <path class="cls-1"
            d="M463.09,943.91l-5.21-5.2-4.62,4.62-2.21-2.21-4.23,4.23,2.22,2.21-11.78,11.77,7,7,19.13-5.07,3.9-3.9-8.78-8.79Zm-5.34,12.37-5.4,1.62c-1.82.65-3.64,1.3-5.4,2l-.13-.13c1.47-1.33,3.68-3.29,5.08-4.69l2.34-2.34Z" />
        <path class="cls-1"
            d="M446.34,926.38c-4.56-4.55-11.42-3.93-18.48,3.13s-7.48,13.72-2.93,18.28,11.23,4.13,18.28-2.93S450.89,930.94,446.34,926.38Zm-8.4,13.21c-5.46,5.46-7.41,5.2-8.71,3.9s-1.56-3.25,3.9-8.71,7.61-5.4,8.91-4.1S443.41,934.12,437.94,939.59Z" />
        <path class="cls-1"
            d="M431.67,921.73,422.89,913l4.62-4.62-5.21-5.21-4.62,4.62-2.21-2.21-4.23,4.23,2.21,2.21-11.77,11.78,7,7,19.13-5.07Zm-14.9.59c-1.82.65-3.64,1.3-5.4,2l-.13-.12c1.46-1.34,3.68-3.29,5.07-4.69l2.35-2.34,3.51,3.51Z" />
        <path class="cls-1"
            d="M385.77,921.15,381.68,915l-5.43,3.63-1.74-2.6-5,3.32,1.73,2.6-13.84,9.25,5.47,8.19,19.75-1.25,4.59-3.06-6.9-10.33Zm-7.65,11.08-5.61.54c-1.91.29-3.83.57-5.69.93l-.1-.16c1.69-1,4.24-2.5,5.89-3.6l2.75-1.84Z" />
        <path class="cls-1"
            d="M372.76,900.69c-3.58-5.36-10.43-6.09-18.73-.55s-10,12-6.44,17.36,10.2,6.24,18.5.7S376.34,906,372.76,900.69Zm-20.12,13.44c-1-1.53-.9-3.5,5.53-7.79s8.52-3.81,9.54-2.28.67,3.65-5.76,7.94S353.66,915.66,352.64,914.13Z" />
        <path class="cls-1"
            d="M359.28,893.26l-6.9-10.32,5.43-3.63-4.09-6.12-5.43,3.63-1.74-2.61-5,3.33,1.74,2.6-13.85,9.25,5.47,8.19,19.75-1.25Zm-14.73-2.33c-1.91.28-3.83.57-5.69.93l-.1-.16c1.7-1,4.25-2.5,5.89-3.6l2.75-1.84,2.77,4.13Z" />
        <path class="cls-1"
            d="M311.55,876.93l-6,2.5-1.2-2.89-5.52,2.29,1.19,2.89-15.38,6.38,3.77,9.09L308,899.82l5.1-2.11-4.75-11.48,6-2.49Zm-6.84,16.18-5.61-.56c-1.93-.1-3.86-.19-5.76-.2l-.07-.17c1.86-.68,4.65-1.63,6.48-2.39l3.06-1.27Z" />
        <path class="cls-1"
            d="M295.65,877c9.22-3.82,12.42-9.92,10-15.87s-9.05-8-18.27-4.19-12.17,9.82-9.7,15.77S286.43,880.82,295.65,877Zm-12.4-6.61c-.71-1.7-.2-3.6,6.94-6.56s9.1-2.08,9.81-.38-.06,3.71-7.2,6.67S284,872.09,283.25,870.39Z" />
        <path class="cls-1"
            d="M293.83,851.22l-4.75-11.48,6-2.5-2.81-6.8-6,2.5-1.2-2.89-5.52,2.29,1.2,2.89-15.39,6.37,3.77,9.1,19.61,2.63Zm-14-5.16c-1.93-.1-3.86-.19-5.76-.21l-.07-.17c1.87-.67,4.66-1.62,6.48-2.38l3.06-1.27,1.91,4.59Z" />
        <path class="cls-1"
            d="M250.21,825.89l-6.4,1.28-.61-3.07-5.87,1.17.61,3.07-16.33,3.24,1.92,9.66,18.72,6.41,5.42-1.08-2.43-12.18,6.41-1.28Zm-9.86,14.54-5.4-1.65c-1.87-.47-3.75-.94-5.61-1.32l0-.18c2-.3,4.89-.69,6.83-1.08l3.25-.65Z" />
        <path class="cls-1"
            d="M234.6,822.86c9.79-2,14.12-7.31,12.86-13.63s-7.31-9.62-17.1-7.67-13.85,7.26-12.59,13.58S224.81,824.81,234.6,822.86ZM223.73,814c-.36-1.8.51-3.57,8.09-5.08s9.33-.26,9.68,1.55-.77,3.62-8.36,5.13S224.09,815.76,223.73,814Z" />
        <path class="cls-1"
            d="M237.85,797.21,235.42,785l6.41-1.27-1.43-7.22L234,777.81l-.61-3.07-5.87,1.17.61,3.07-16.33,3.25,1.92,9.65,18.72,6.41Zm-12.72-7.79c-1.87-.47-3.75-.94-5.61-1.32l0-.18c2-.3,4.88-.69,6.82-1.08l3.25-.64,1,4.87Z" />
        <path class="cls-1"
            d="M193.47,760.74h-6v3.13H170.84v9.84L188,783.65h5.52V771.23H200v-7.36h-6.54Zm-6,15.46-5-2.67c-1.74-.83-3.49-1.66-5.24-2.4V771c2,.09,4.92.28,6.9.28h3.31Z" />
        <path class="cls-1"
            d="M185.28,736.13c-9.93,0-15,4.41-15,10.85s5,10.86,15,10.86,15.28-4.41,15.28-10.86S195.27,736.13,185.28,736.13Zm0,14.26c-7.73,0-8.92-1.56-8.92-3.41s1.19-3.4,8.92-3.4,9.2,1.56,9.2,3.4S193,750.39,185.28,750.39Z" />
        <path class="cls-1"
            d="M187.49,710.41v3.13H170.84v9.85L188,733.32h5.52V720.9H200v-7.36h-6.54v-3.13Zm0,15.46-5-2.67c-1.74-.82-3.49-1.65-5.24-2.39v-.18c2,.09,4.92.27,6.9.27h3.31Z" />
        <path class="cls-1"
            d="M157.07,688.89l-5.87-1.17-.61,3.07-16.33-3.25-1.92,9.66,14.84,13.08,5.42,1.08L155,699.18l6.41,1.27,1.43-7.22-6.4-1.27Zm-8.88,14-4.36-3.58c-1.55-1.16-3.1-2.31-4.67-3.37l0-.18c1.92.47,4.78,1.23,6.72,1.62l3.25.64Z" />
        <path class="cls-1"
            d="M153.84,663.16c-9.75-1.94-15.57,1.4-16.83,7.72s2.8,11.63,12.59,13.57,15.84-1.35,17.1-7.67S163.63,665.1,153.84,663.16Zm6.9,12.44c-.36,1.8-2.1,3-9.69,1.54s-8.44-3.27-8.08-5.08,1.83-3.1,9.41-1.6S161.1,673.79,160.74,675.6Z" />
        <path class="cls-1"
            d="M162.42,662l2.42-12.18,6.41,1.28,1.43-7.22-6.41-1.28.62-3.07L161,638.37l-.61,3.07-16.34-3.25-1.92,9.65L157,660.93ZM149,646.57l0-.18c1.92.48,4.77,1.23,6.71,1.62l3.25.64-1,4.88-4.35-3.59C152.1,648.79,150.54,647.63,149,646.57Z" />
        <path class="cls-1"
            d="M137.4,623.51l2.82-6.8-6-2.5,1.2-2.89L129.85,609l-1.19,2.89-15.39-6.38-3.77,9.1,12,15.73,5.1,2.11L131.36,621Zm-13.46-.19L120.37,619c-1.3-1.43-2.6-2.87-3.93-4.22l.07-.17c1.79.84,4.44,2.14,6.27,2.9l3.06,1.27Z" />
        <path class="cls-1"
            d="M119.22,589.75c-2.47,6,.48,12,9.7,15.77s15.8,1.76,18.27-4.19-.74-12.06-10-15.88S121.68,583.79,119.22,589.75Zm5.61,2.32c.7-1.7,2.41-2.69,9.55.27s7.9,5,7.2,6.67-2.67,2.58-9.81-.38S124.12,593.77,124.83,592.07Z" />
        <path class="cls-1"
            d="M128.76,568.15l12,15.73,5.1,2.12,4.75-11.48,6,2.5,2.81-6.8-6-2.5,1.2-2.89-5.53-2.29-1.2,2.89-15.38-6.37Zm7-.08c1.79.84,4.44,2.14,6.27,2.9l3.06,1.26-1.9,4.59-3.57-4.36c-1.3-1.44-2.6-2.87-3.93-4.22Z" />
        <path class="cls-1"
            d="M116.51,550.06l6.9-10.32,5.43,3.63,4.09-6.13-5.43-3.62,1.74-2.61-5-3.32-1.74,2.6L108.68,521l-5.47,8.19L111.92,547Zm-6.41-19.55c1.59,1.17,3.94,3,5.58,4.06l2.76,1.84-2.76,4.13-2.65-5c-1-1.65-2-3.31-3-4.9Z" />
        <path class="cls-1"
            d="M117.6,506.7c-3.58,5.35-1.86,11.81,6.44,17.36s15.15,4.81,18.73-.54,1.63-12-6.67-17.52S121.18,501.34,117.6,506.7Zm20.12,13.44c-1,1.53-3.11,2-9.54-2.28s-6.55-6.26-5.53-7.79,2.89-2.17,9.31,2.13S138.74,518.61,137.72,520.14Z" />
        <path class="cls-1"
            d="M152.22,485.85l-1.73,2.6-13.85-9.25-5.47,8.18,8.71,17.77,4.59,3.07,6.9-10.33,5.43,3.63,4.09-6.12-5.43-3.63,1.74-2.6Zm-8.58,12.85-2.65-5c-1-1.66-2-3.32-3-4.9l.1-.15c1.59,1.17,3.94,3,5.58,4.06l2.76,1.84Z" />
        <path class="cls-1"
            d="M122.68,467.25l8.79-8.78,4.62,4.62,5.2-5.21-4.62-4.62,2.21-2.21-4.23-4.23L132.44,449l-11.77-11.78-7,7,5.07,19.13Zm-2.47-20.43c1.33,1.47,3.29,3.68,4.69,5.08l2.34,2.34-3.52,3.51-1.62-5.4c-.65-1.82-1.3-3.64-2-5.4Z" />
        <path class="cls-1"
            d="M153.62,446.34c4.55-4.56,3.93-11.42-3.13-18.48s-13.72-7.48-18.28-2.93-4.13,11.23,2.93,18.28S149.06,450.89,153.62,446.34Zm-17.11-17.11c1.3-1.3,3.25-1.56,8.71,3.9s5.4,7.61,4.1,8.91-3.44,1.37-8.91-4.1S135.21,430.53,136.51,429.23Z" />
        <path class="cls-1"
            d="M170.24,411.24,168,413.45l-11.78-11.77-7,7,5.07,19.13,3.91,3.9,8.78-8.78,4.62,4.62,5.21-5.21-4.62-4.62,2.21-2.21Zm-10.93,10.93-1.63-5.4c-.65-1.82-1.3-3.64-2-5.4l.12-.13c1.34,1.46,3.29,3.68,4.69,5.07l2.34,2.35Z" />
        <path class="cls-1"
            d="M144.89,387.24l10.33-6.9,3.63,5.43,6.12-4.09-3.63-5.43,2.6-1.74-3.32-5-2.6,1.73-9.25-13.84-8.19,5.47,1.25,19.75Zm1.57-20.52c1,1.69,2.5,4.24,3.6,5.89l1.84,2.75-4.13,2.76-.54-5.61c-.29-1.91-.57-3.83-.93-5.69Z" />
        <path class="cls-1"
            d="M179.31,372.76c5.36-3.58,6.09-10.43.55-18.73s-12-10-17.36-6.44-6.24,10.2-.7,18.5S174,376.34,179.31,372.76Zm-13.44-20.12c1.53-1,3.5-.9,7.79,5.53s3.81,8.52,2.28,9.54-3.65.67-7.94-5.76S164.34,353.66,165.87,352.64Z" />
        <path class="cls-1"
            d="M205.79,346.55l-3.33-5-2.6,1.74-9.25-13.85-8.19,5.47,1.25,19.75,3.07,4.59,10.32-6.9,3.63,5.43,6.12-4.09-3.63-5.43Zm-16.18,3.62-.54-5.62c-.28-1.91-.57-3.83-.93-5.69l.16-.1c1,1.7,2.5,4.25,3.6,5.89l1.84,2.75Z" />
        <path class="cls-1"
            d="M193.76,308.34l2.5,6,6.8-2.82-2.49-6,2.89-1.2-2.29-5.52L198.28,300l-6.38-15.38-9.09,3.77L180.18,308l2.11,5.1Zm-6.31-9.24c.1-1.93.19-3.86.2-5.76l.17-.07c.67,1.86,1.63,4.65,2.39,6.48l1.27,3.06-4.59,1.9Z" />
        <path class="cls-1"
            d="M218.87,305.61c5.95-2.47,8-9.05,4.19-18.27s-9.82-12.17-15.77-9.7-8.11,8.79-4.29,18S212.92,308.07,218.87,305.61Zm-9-12.81c-3-7.14-2-8.85-.27-9.55s3.6-.2,6.56,6.94,2.08,9.1.38,9.81S212.84,299.94,209.88,292.8Z" />
        <path class="cls-1"
            d="M240.26,289.08l2.5,6,6.8-2.81-2.5-6,2.89-1.2-2.29-5.52-2.89,1.2-6.37-15.39-9.1,3.77-2.63,19.61,2.11,5.1Zm-6.32-9.24c.1-1.93.19-3.86.21-5.76l.17-.07c.67,1.87,1.62,4.66,2.38,6.48l1.27,3.06-4.59,1.91Z" />
        <path class="cls-1"
            d="M254.73,237.33l-3.06.61-3.25-16.33-9.66,1.92-6.41,18.72,1.08,5.42,12.18-2.43,1.28,6.41,7.22-1.44-1.28-6.4,3.07-.61Zm-15.16,3,1.65-5.4c.47-1.87.94-3.75,1.32-5.61l.18,0c.3,2,.69,4.89,1.08,6.83l.65,3.25Z" />
        <path class="cls-1"
            d="M270.77,247.46c6.32-1.26,9.62-7.31,7.67-17.1s-7.26-13.85-13.57-12.59-9.68,7-7.73,16.83S264.45,248.72,270.77,247.46Zm-6.32-14.32c-1.51-7.58-.2-9,1.6-9.41s3.57.51,5.08,8.09.26,9.33-1.54,9.68S266,240.73,264.45,233.14Z" />
        <path class="cls-1"
            d="M295,235.42l1.27,6.41,7.22-1.43L302.19,234l3.07-.61-1.17-5.87-3.07.61-3.25-16.33-9.65,1.92-6.41,18.72,1.08,5.42Zm-4.39-10.29c.47-1.87.94-3.75,1.32-5.61l.18,0c.3,2,.69,4.88,1.08,6.82l.64,3.25-4.87,1Z" />
        <path class="cls-1"
            d="M316.13,170.84h-9.84L296.35,188v5.52h12.42V200h7.36v-6.54h3.13v-6h-3.13Zm-12.32,16.65,2.66-5c.83-1.74,1.66-3.49,2.4-5.24h.18c-.09,2-.28,4.92-.28,6.9v3.31Z" />
        <path class="cls-1"
            d="M343.87,185.28c0-9.93-4.41-15-10.85-15s-10.86,5-10.86,15,4.41,15.28,10.86,15.28S343.87,195.27,343.87,185.28Zm-14.26,0c0-7.73,1.57-8.92,3.41-8.92s3.4,1.19,3.4,8.92-1.56,9.2-3.4,9.2S329.61,193,329.61,185.28Z" />
        <path class="cls-1"
            d="M359.1,200h7.36v-6.54h3.13v-6h-3.13V170.84h-9.85L346.68,188v5.52H359.1Zm-5-12.52,2.67-5c.82-1.74,1.65-3.49,2.39-5.24h.18c-.09,2-.27,4.92-.27,6.9v3.31Z" />
        <path class="cls-1"
            d="M382.8,132.34l-13.08,14.84-1.08,5.42L380.82,155l-1.27,6.41,7.22,1.43,1.27-6.4,3.07.61,1.17-5.87-3.07-.61,3.25-16.33Zm-5.68,15.85,3.58-4.36c1.15-1.55,2.31-3.1,3.37-4.67l.18,0c-.47,1.92-1.23,4.78-1.62,6.72l-.64,3.25Z" />
        <path class="cls-1"
            d="M416.84,153.84c1.94-9.75-1.4-15.57-7.72-16.83s-11.63,2.8-13.57,12.59,1.35,15.84,7.66,17.1S414.9,163.63,416.84,153.84Zm-14-2.79c1.5-7.58,3.27-8.44,5.08-8.08s3.1,1.83,1.59,9.41-3.32,8.72-5.13,8.36S401.35,158.64,402.86,151.05Z" />
        <path class="cls-1"
            d="M428.9,171.25l7.22,1.43,1.28-6.41,3.07.62,1.16-5.87-3.07-.61,3.25-16.34-9.65-1.92L419.07,157,418,162.42l12.18,2.42ZM426.47,158l3.59-4.35c1.15-1.55,2.3-3.11,3.37-4.68l.18,0c-.48,1.92-1.23,4.77-1.62,6.71l-.65,3.25Z" />
        <path class="cls-1"
            d="M474.45,113.27l-9.1-3.77-15.73,12-2.11,5.1L459,131.36l-2.5,6,6.8,2.82,2.5-6,2.89,1.2,2.28-5.53-2.89-1.19Zm-17.77,10.67,4.37-3.57c1.43-1.3,2.87-2.6,4.22-3.93l.17.07c-.84,1.79-2.14,4.44-2.9,6.27l-1.27,3.06Z" />
        <path class="cls-1"
            d="M494.55,137.23c3.8-9.18,1.66-15.55-4.3-18s-11.95.48-15.77,9.7-1.76,15.8,4.19,18.27S490.73,146.45,494.55,137.23ZM481,141.58c-1.7-.71-2.58-2.67.38-9.81s4.86-7.65,6.56-6.94,2.69,2.41-.27,9.55S482.69,142.28,481,141.58Z" />
        <path class="cls-1"
            d="M494,145.87l11.48,4.75-2.5,6,6.8,2.81,2.5-6,2.89,1.2,2.29-5.53-2.89-1.2,6.37-15.38-9.09-3.77-15.74,12Zm13.54-6.24c1.44-1.3,2.87-2.6,4.22-3.93l.17.07c-.84,1.79-2.14,4.44-2.9,6.27l-1.26,3.06-4.59-1.9Z" />
        <path class="cls-1"
            d="M536.63,128.84l6.12,4.09,3.63-5.43,2.6,1.74,3.33-5-2.6-1.74L559,108.68l-8.19-5.47L533,111.92l-3.06,4.59,10.32,6.9Zm2.82-13.16,5-2.65c1.66-1,3.32-2,4.91-3l.15.1c-1.18,1.59-3,3.94-4.06,5.58l-1.84,2.76Z" />
        <path class="cls-1"
            d="M574,136.1c5.52-8.26,4.66-14.92-.7-18.5s-11.81-1.86-17.36,6.44-4.81,15.15.54,18.73S568.45,144.4,574,136.1Zm-14.14,1.62c-1.53-1-2-3.11,2.28-9.54s6.26-6.55,7.79-5.53,2.16,2.89-2.13,9.31S561.39,138.74,559.86,137.72Z" />
        <path class="cls-1"
            d="M571.78,144.47l10.33,6.9-3.63,5.43,6.12,4.09,3.63-5.43,2.6,1.74,3.32-5-2.6-1.73,9.25-13.85-8.18-5.47-17.78,8.71Zm14.5-3.48c1.66-1,3.32-2,4.9-3l.15.1c-1.17,1.59-3,3.94-4.06,5.58l-1.84,2.76-4.13-2.76Z" />
        <path class="cls-1"
            d="M616.91,136.09l5.21,5.2,4.62-4.62,2.21,2.21,4.23-4.23L631,132.44l11.78-11.77-7-7-19.13,5.07-3.9,3.9,8.78,8.79Zm5.34-12.37,5.4-1.62c1.82-.65,3.64-1.3,5.4-2l.13.13c-1.47,1.33-3.68,3.29-5.08,4.69l-2.34,2.34Z" />
        <path class="cls-1"
            d="M652.14,150.49c7-7,7.48-13.72,2.93-18.28s-11.23-4.13-18.28,2.93-7.68,13.92-3.13,18.48S645.08,157.55,652.14,150.49ZM638,149.32c-1.3-1.3-1.37-3.44,4.1-8.91s7.41-5.2,8.71-3.9,1.56,3.25-3.9,8.71S639.26,150.62,638,149.32Z" />
        <path class="cls-1"
            d="M648.33,158.27l8.78,8.78-4.61,4.62,5.2,5.21,4.62-4.62,2.21,2.21,4.23-4.23L666.55,168l11.77-11.78-7-7-19.13,5.07Zm14.9-.59c1.82-.65,3.64-1.3,5.4-2l.13.12c-1.46,1.34-3.68,3.29-5.07,4.69l-2.35,2.34-3.51-3.51Z" />
        <path class="cls-1"
            d="M694.23,158.85l4.09,6.12,5.44-3.63,1.73,2.6,5-3.32-1.74-2.6,13.84-9.25-5.46-8.19-19.76,1.25-4.59,3.06,6.91,10.33Zm7.65-11.08,5.61-.54c1.91-.29,3.83-.57,5.69-.93l.1.16c-1.69,1-4.24,2.5-5.89,3.6l-2.75,1.84Z" />
        <path class="cls-1"
            d="M707.24,179.31c3.58,5.36,10.43,6.09,18.73.55s10-12,6.44-17.36-10.2-6.24-18.5-.7S703.66,174,707.24,179.31Zm20.12-13.44c1,1.53.9,3.5-5.53,7.79s-8.52,3.81-9.54,2.28-.67-3.65,5.76-7.94S726.34,164.34,727.36,165.87Z" />
        <path class="cls-1"
            d="M736.69,199.86l13.84-9.25-5.47-8.19-19.75,1.25-4.59,3.07,6.9,10.32-5.43,3.63,4.09,6.12,5.43-3.63,1.74,2.61,5-3.33Zm-6.85-10.25,5.61-.54c1.91-.28,3.83-.57,5.69-.93l.1.16c-1.69,1-4.24,2.5-5.89,3.6l-2.75,1.84Z" />
        <path class="cls-1"
            d="M768.45,203.06l6-2.49,1.2,2.89,5.52-2.29L780,198.28l15.38-6.38-3.77-9.09L772,180.18l-5.1,2.11,4.75,11.47-6,2.5Zm6.84-16.17,5.61.56c1.93.1,3.86.19,5.76.2l.07.17c-1.86.67-4.65,1.63-6.48,2.39l-3.06,1.27Z" />
        <path class="cls-1"
            d="M784.35,203c-9.22,3.82-12.42,9.92-10,15.87s9.05,8,18.27,4.19,12.17-9.82,9.7-15.77S793.57,199.18,784.35,203Zm12.4,6.61c.71,1.7.2,3.6-6.94,6.56s-9.1,2.08-9.81.38.06-3.71,7.2-6.67S796.05,207.91,796.75,209.61Z" />
        <path class="cls-1"
            d="M814.65,238.4l-3.77-9.1-19.61-2.63-5.1,2.11,4.75,11.48-6,2.5,2.81,6.8,6-2.5,1.2,2.89,5.52-2.29-1.2-2.89Zm-20.11-5,5.62.56c1.93.1,3.86.19,5.76.21l.07.17c-1.86.67-4.66,1.62-6.48,2.38L796.45,238Z" />
        <path class="cls-1"
            d="M829.79,254.11l6.4-1.28.61,3.07,5.87-1.17-.61-3.07,16.33-3.24-1.92-9.66-18.72-6.41-5.42,1.08,2.43,12.18-6.41,1.28Zm9.86-14.54,5.4,1.65c1.87.47,3.75.94,5.61,1.32l0,.18c-2,.3-4.89.69-6.83,1.08l-3.25.65Z" />
        <path class="cls-1"
            d="M845.4,257.14c-9.79,1.95-14.12,7.31-12.86,13.63s7.31,9.62,17.1,7.67,13.85-7.26,12.59-13.58S855.19,255.19,845.4,257.14Zm10.87,8.91c.36,1.8-.51,3.57-8.09,5.08s-9.33.26-9.68-1.54.77-3.63,8.36-5.14S855.91,264.24,856.27,266.05Z" />
        <path class="cls-1"
            d="M842.15,282.79,844.58,295l-6.41,1.27,1.43,7.22,6.41-1.27.61,3.07,5.87-1.17-.61-3.07,16.33-3.25-1.92-9.65-18.72-6.41Zm12.72,7.79c1.87.47,3.75.94,5.61,1.32l0,.18c-2,.3-4.88.69-6.82,1.08l-3.25.64-1-4.87Z" />
        <path class="cls-1"
            d="M886.53,319.26h6v-3.13h16.65v-9.84l-17.11-9.94h-5.52v12.42H880v7.36h6.54Zm6-15.45,5,2.66c1.74.83,3.49,1.66,5.24,2.4v.18c-2-.09-4.92-.28-6.9-.28h-3.31Z" />
        <path class="cls-1"
            d="M894.72,343.87c9.93,0,15-4.41,15-10.85s-5-10.86-15-10.86-15.28,4.41-15.28,10.86S884.73,343.87,894.72,343.87Zm0-14.26c7.73,0,8.92,1.57,8.92,3.41s-1.19,3.4-8.92,3.4-9.2-1.56-9.2-3.4S887,329.61,894.72,329.61Z" />
        <path class="cls-1"
            d="M892.51,369.59v-3.13h16.65v-9.85l-17.11-9.93h-5.52V359.1H880v7.36h6.54v3.13Zm0-15.46,5,2.67c1.74.82,3.49,1.65,5.24,2.39v.18c-2-.09-4.92-.27-6.9-.27h-3.31Z" />
        <path class="cls-1"
            d="M922.93,391.11l5.87,1.17.61-3.07,16.33,3.25,1.92-9.66-14.84-13.08-5.42-1.08L925,380.82l-6.41-1.27-1.43,7.22,6.4,1.27Zm8.88-14,4.36,3.58c1.55,1.15,3.1,2.31,4.67,3.37l0,.18c-1.92-.47-4.78-1.23-6.72-1.62l-3.24-.64Z" />
        <path class="cls-1"
            d="M926.16,416.84c9.75,1.94,15.57-1.4,16.83-7.72s-2.8-11.63-12.59-13.57-15.84,1.35-17.1,7.66S916.37,414.9,926.16,416.84Zm-6.9-12.44c.36-1.81,2.11-3,9.69-1.54s8.44,3.27,8.09,5.08-1.84,3.1-9.42,1.59S918.9,406.21,919.26,404.4Z" />
        <path class="cls-1"
            d="M919,441.63l.61-3.07,16.34,3.25,1.92-9.65L923,419.07,917.58,418l-2.42,12.18-6.41-1.28-1.43,7.22,6.41,1.28-.61,3.07Zm3-15.16,4.35,3.59c1.55,1.15,3.11,2.3,4.68,3.37l0,.18c-1.92-.48-4.77-1.23-6.71-1.62l-3.25-.65Z" />
        <path class="cls-1"
            d="M942.6,456.49l-2.81,6.8,6,2.5-1.2,2.89,5.53,2.28,1.2-2.89,15.38,6.38,3.77-9.1-12-15.73-5.1-2.11L948.64,459Zm13.46.19,3.57,4.37c1.3,1.43,2.6,2.87,3.93,4.22l-.07.17c-1.79-.84-4.44-2.14-6.27-2.9l-3.06-1.27Z" />
        <path class="cls-1"
            d="M960.78,490.25c2.47-5.95-.48-11.95-9.7-15.77s-15.8-1.76-18.27,4.19.74,12.06,10,15.88S958.32,496.21,960.78,490.25Zm-5.61-2.32c-.7,1.7-2.41,2.69-9.55-.27s-7.9-5-7.2-6.67,2.67-2.58,9.81.38S955.88,486.23,955.17,487.93Z" />
        <path class="cls-1"
            d="M951.24,511.85l-12-15.74-5.1-2.11-4.75,11.48-6-2.5-2.81,6.8,6,2.5-1.19,2.89,5.52,2.29,1.2-2.89,15.38,6.37Zm-7,.08c-1.79-.84-4.44-2.14-6.27-2.9l-3.06-1.26,1.91-4.59,3.57,4.36c1.29,1.44,2.59,2.87,3.92,4.22Z" />
        <path class="cls-1"
            d="M968.08,533l-4.59-3.06-6.9,10.32-5.43-3.63-4.09,6.12,5.43,3.63-1.74,2.6,5,3.33,1.74-2.6L971.32,559l5.47-8.19Zm1.82,16.49c-1.59-1.18-3.94-3-5.58-4.06l-2.76-1.84,2.76-4.14,2.65,5c1,1.66,2,3.32,3,4.91Z" />
        <path class="cls-1"
            d="M962.4,573.3c3.58-5.35,1.86-11.81-6.44-17.36s-15.15-4.81-18.73.54-1.63,12,6.67,17.52S958.82,578.66,962.4,573.3Zm-20.12-13.44c1-1.53,3.11-2,9.54,2.28s6.55,6.26,5.53,7.79-2.89,2.16-9.31-2.13S941.26,561.39,942.28,559.86Z" />
        <path class="cls-1"
            d="M927.78,594.15l1.73-2.6,13.85,9.25,5.47-8.18-8.71-17.78-4.59-3.06-6.9,10.33-5.43-3.63-4.09,6.12,5.43,3.62-1.74,2.61Zm8.58-12.85,2.65,5c1,1.66,2,3.32,3,4.9l-.1.15c-1.59-1.17-3.94-3-5.58-4.06l-2.76-1.84Z" />
        <path class="cls-1"
            d="M957.32,612.75l-8.79,8.78-4.62-4.62-5.2,5.21,4.62,4.62L941.12,629l4.23,4.23,2.21-2.22,11.77,11.78,7-7-5.07-19.13Zm2.47,20.43c-1.33-1.47-3.29-3.68-4.69-5.08l-2.34-2.34,3.52-3.51,1.62,5.4c.65,1.82,1.3,3.64,2,5.4Z" />
        <path class="cls-1"
            d="M926.38,633.66c-4.55,4.56-3.93,11.42,3.13,18.48s13.72,7.48,18.28,2.93,4.13-11.23-2.93-18.28S930.94,629.11,926.38,633.66Zm17.11,17.11c-1.3,1.3-3.25,1.56-8.71-3.9s-5.4-7.61-4.1-8.91,3.44-1.37,8.91,4.1S944.79,649.47,943.49,650.77Z" />
        <path class="cls-1"
            d="M909.76,668.76l2.21-2.21,11.78,11.77,7-7-5.07-19.13-3.91-3.9L913,657.11l-4.62-4.61-5.21,5.2,4.62,4.62-2.21,2.21Zm10.93-10.93,1.63,5.4c.65,1.82,1.3,3.64,2,5.4l-.12.13c-1.34-1.46-3.29-3.68-4.69-5.07l-2.34-2.35Z" />
        <path class="cls-1"
            d="M935.11,692.76l-10.33,6.9-3.63-5.43L915,698.32l3.63,5.43-2.6,1.74,3.32,5,2.6-1.73,9.25,13.84,8.19-5.46-1.25-19.76Zm-1.57,20.52c-1-1.69-2.5-4.24-3.6-5.89l-1.84-2.75,4.13-2.76.54,5.61c.29,1.91.57,3.83.93,5.69Z" />
        <path class="cls-1"
            d="M900.69,707.24c-5.36,3.58-6.09,10.43-.55,18.73s12,10,17.36,6.44,6.24-10.2.7-18.5S906,703.66,900.69,707.24Zm13.44,20.12c-1.53,1-3.5.9-7.79-5.53s-3.81-8.52-2.28-9.54,3.65-.67,7.94,5.76S915.66,726.34,914.13,727.36Z" />
        <path class="cls-1"
            d="M874.21,733.45l3.33,5,2.6-1.73,9.25,13.84,8.19-5.47-1.25-19.75-3.07-4.59-10.32,6.9-3.63-5.43-6.12,4.09,3.63,5.43Zm16.18-3.61.54,5.61c.28,1.91.57,3.83.93,5.69l-.16.1c-1-1.69-2.5-4.24-3.6-5.89l-1.84-2.75Z" />
        <path class="cls-1"
            d="M886.24,771.66l-2.5-6-6.81,2.82,2.5,6-2.89,1.2,2.29,5.52,2.89-1.19,6.38,15.38,9.09-3.77L899.82,772l-2.11-5.1Zm6.31,9.24c-.1,1.93-.19,3.86-.2,5.76l-.17.07c-.68-1.86-1.63-4.65-2.39-6.48l-1.27-3.06,4.59-1.9Z" />
        <path class="cls-1"
            d="M861.13,774.39c-6,2.47-8,9.05-4.19,18.27s9.82,12.17,15.77,9.7,8.11-8.79,4.29-18S867.08,771.93,861.13,774.39Zm9.26,22.36c-1.7.71-3.6.2-6.56-6.94s-2.08-9.1-.38-9.81,3.71.06,6.67,7.2S872.09,796.05,870.39,796.75Z" />
        <path class="cls-1"
            d="M839.74,790.92l-2.5-6-6.8,2.81,2.5,6-2.89,1.2,2.29,5.52,2.89-1.2,6.37,15.39,9.1-3.77,2.63-19.61-2.11-5.1Zm6.32,9.24c-.1,1.93-.19,3.86-.21,5.76l-.17.07c-.67-1.87-1.62-4.66-2.38-6.48L842,796.45l4.59-1.91Z" />
        <path class="cls-1"
            d="M834.39,834.76l-1.28-6.41-7.22,1.44,1.28,6.4-3.07.61,1.17,5.87,3.07-.61,3.24,16.33,9.66-1.92,6.41-18.72-1.08-5.42Zm4.39,10.29c-.47,1.87-.94,3.75-1.32,5.61l-.18,0c-.3-2-.69-4.89-1.08-6.83l-.65-3.25,4.88-1Z" />
        <path class="cls-1"
            d="M809.23,832.54c-6.32,1.25-9.62,7.31-7.67,17.1s7.26,13.85,13.58,12.59,9.67-7,7.72-16.83S815.55,831.28,809.23,832.54ZM814,856.27c-1.8.36-3.57-.51-5.08-8.09s-.26-9.33,1.55-9.68,3.62.78,5.13,8.36S815.76,855.91,814,856.27Z" />
        <path class="cls-1"
            d="M785,844.58l-1.27-6.41-7.22,1.43,1.27,6.41-3.07.61,1.17,5.87,3.07-.61,3.25,16.33,9.65-1.92,6.41-18.72-1.08-5.42Zm4.39,10.29c-.47,1.87-.94,3.75-1.32,5.61l-.18,0c-.3-2-.69-4.88-1.08-6.82l-.64-3.25,4.87-1Z" />
    </g>
    <g id="inner">
        <path
            d="M678,744.76h-5.71c-3.41,0-6.34-1.25-6.34-5.18s3-5.48,6.24-5.48h1.68v-4.94H678Zm-5.62-7.39c-1.63,0-2.4.81-2.4,2.21s.91,1.92,2.5,1.92h1.39v-4.13Z" />
        <path
            d="M664.89,732.57c0,2.49-1.92,3.89-6.52,4.37.09.86.62,1.24,1.68,1.24a6.55,6.55,0,0,0,3-1l1.44,2.69a10.19,10.19,0,0,1-5.28,1.58c-3.12,0-5-1.68-5-5.62v-6.67h3.36l.29,1.15H658a4.89,4.89,0,0,1,3.31-1.44A3.53,3.53,0,0,1,664.89,732.57Zm-6.52.29v1.63c2-.29,2.59-.91,2.59-1.59s-.39-.86-1.11-.86A1.88,1.88,0,0,0,658.37,732.86Z" />
        <path
            d="M652.22,727.19a2.59,2.59,0,0,1-1.68,2.31v.09a2.36,2.36,0,0,1,1.11,2.07,2.92,2.92,0,0,1-1.35,2.25v.1a3.69,3.69,0,0,1,1.63,3.07c0,3-2.49,4.37-5.13,4.37a6.23,6.23,0,0,1-1.92-.29h-4.47v-3h1.73a4.37,4.37,0,0,1-.19-1.24c0-2.84,2.16-4,4.85-4a6,6,0,0,1,1.34.17.76.76,0,0,0,.29-.7c0-.52-.48-.72-1.68-.72H645c-3,0-4.73-.91-4.73-3.12,0-2.59,2.69-4.37,7-4.37C649.92,724.21,652.22,725,652.22,727.19Zm-8.06.67c0,.63.57.72,1.61.72h.93a6.14,6.14,0,0,1,1.73.15,1.16,1.16,0,0,0,.43-.87c0-.76-1-1.1-2.35-1.1S644.16,727.19,644.16,727.86Zm1.34,9.22c0,1.1.53,1.63,1.3,1.63s1.29-.53,1.29-1.63-.52-1.68-1.29-1.68S645.5,735.93,645.5,737.08Z" />
        <path
            d="M639.55,735.16a5.94,5.94,0,0,1-5.76,6.29c-3.55,0-5.23-2.59-5.23-5.81a8,8,0,0,1,.17-1.73h6.84a2.53,2.53,0,0,0-2.79-1.92,5,5,0,0,0-2.45.72L629,730.26a8.1,8.1,0,0,1,4.37-1.39A5.9,5.9,0,0,1,639.55,735.16Zm-7.49,1.44a1.52,1.52,0,0,0,1.63,1.73,1.9,1.9,0,0,0,1.92-1.73Z" />
        <path
            d="M621.17,744.76h-4.23l-3.45-7L612,734.3h-.1a56.49,56.49,0,0,1,.53,6v4.51h-3.94v-15.6h4.23l3.45,7,1.49,3.48h.1a58.74,58.74,0,0,1-.53-6v-4.51h3.94Z" />
        <path
            d="M606,735.16a6,6,0,1,1-6-6.29A5.95,5.95,0,0,1,606,735.16Zm-7.68,0c0,1.82.48,3,1.73,3s1.72-1.16,1.72-3-.48-3-1.72-3S598.32,733.34,598.32,735.16Z" />
        <path
            d="M592.13,733.77v4.17h1.58V741l-1.82.14-.48,3.12H588v-3.12h-2.74v-3.22H588v-4.1c0-1.32-.67-1.75-1.44-1.75a3.34,3.34,0,0,0-1.06.19l-.62-3a9.1,9.1,0,0,1,2.83-.43C590.83,728.87,592.13,730.84,592.13,733.77Z" />
        <path d="M577.92,744.76H567.74V741.3h6v-3h-5.18v-3.46h5.18v-5.71h4.13Z" />
        <path
            d="M566.49,735.16a6,6,0,1,1-6-6.29A5.95,5.95,0,0,1,566.49,735.16Zm-7.68,0c0,1.82.48,3,1.73,3s1.73-1.16,1.73-3-.48-3-1.73-3S558.81,733.34,558.81,735.16Z" />
        <path
            d="M552.53,733.77v7.39H548.4V734.3c0-1.54-.39-1.92-1.2-1.92a1.88,1.88,0,0,0-1.73,1v7.73h-4.13v-12h3.36l.29,1.58h.1a4.54,4.54,0,0,1,3.69-1.87C551.42,728.87,552.53,730.79,552.53,733.77Z" />
        <path
            d="M538.56,741.16H535.2l-.29-1.44h-.1a5.43,5.43,0,0,1-3.79,1.73c-2.64,0-3.74-1.92-3.74-4.9v-7.39h4.13V736c0,1.54.38,1.92,1.2,1.92a2.48,2.48,0,0,0,1.82-.91v-7.87h4.13Z" />
        <path
            d="M525.12,735.16c0,3.94-2.45,6.29-4.9,6.29a3.6,3.6,0,0,1-2.78-1.2l.14,1.73v3.89h-4.13V729.16h3.36l.29,1.1h.1a4.56,4.56,0,0,1,3-1.39C523.2,728.87,525.12,731.27,525.12,735.16Zm-7.54-2.06v4.41a2.46,2.46,0,0,0,1.63.58c.87,0,1.69-.77,1.69-2.88s-.68-3-1.78-3A1.63,1.63,0,0,0,517.58,733.1Z" />
    </g>
    <g id="inner" data-name="inner">
        <path
            d="M492.76,782.33l-4-4c-2.41-2.41-3.6-5.36-.82-8.14s6-1.77,8.29.54l1.18,1.19,3.5-3.5,2.92,2.92Zm1.25-9.2c-1.15-1.15-2.27-1.12-3.26-.13s-.71,2,.41,3.12l1,1,2.92-2.92Z" />
        <path
            d="M492.15,764.48c-1.77,1.77-4.11,1.39-7.71-1.53-.54.68-.44,1.33.31,2.07a6.56,6.56,0,0,0,2.85,1.43l-.88,2.92a10.16,10.16,0,0,1-4.86-2.62c-2.2-2.2-2.34-4.71.44-7.5l4.72-4.71,2.38,2.37-.61,1,.06.07a4.84,4.84,0,0,1,3.37,1.32A3.53,3.53,0,0,1,492.15,764.48Zm-4.82-4.41-1.16,1.15c1.6,1.19,2.48,1.19,3,.71s.34-.88-.17-1.39A1.9,1.9,0,0,0,487.33,760.07Z" />
        <path
            d="M487,751.72a2.61,2.61,0,0,1-2.82.44l-.07.07a2.37,2.37,0,0,1-.67,2.24,3,3,0,0,1-2.55.64l-.07.07a3.7,3.7,0,0,1-1,3.33c-2.1,2.1-4.85,1.32-6.72-.55a6,6,0,0,1-1.15-1.56l-3.16-3.15,2.11-2.11,1.22,1.22a4.09,4.09,0,0,1,.74-1c2-2,4.35-1.29,6.25.62a6,6,0,0,1,.83,1.07.81.81,0,0,0,.7-.29c.37-.38.17-.85-.68-1.7l-1.27-1.27c-2.13-2.13-2.7-4-1.14-5.55,1.83-1.84,5-1.19,8,1.83C487.46,748,488.52,750.19,487,751.72ZM475.24,754c-.78.78-.78,1.53-.23,2.07s1.29.54,2.07-.24.81-1.56.27-2.1S476.06,753.14,475.24,754Zm5.57-7.47c-.44.44-.1.92.63,1.65l.66.66a6.51,6.51,0,0,1,1.12,1.32,1.2,1.2,0,0,0,.92-.3c.54-.55.1-1.46-.88-2.45S481.29,746,480.81,746.49Z" />
        <path
            d="M472.39,748.39a5.94,5.94,0,0,1-8.52.38c-2.51-2.52-1.86-5.54.41-7.81a8.56,8.56,0,0,1,1.34-1.1l4.84,4.83a2.52,2.52,0,0,0-.61-3.32,5,5,0,0,0-2.24-1.23l.78-2.68a8.08,8.08,0,0,1,4.07,2.11A5.89,5.89,0,0,1,472.39,748.39Zm-6.31-4.27a1.51,1.51,0,0,0-.07,2.37,1.89,1.89,0,0,0,2.58.14Z" />
        <path
            d="M452.61,742.18l-3-3,2.48-7.37,1.42-3.53-.07-.07a54.36,54.36,0,0,1-3.83,4.58L446.43,736l-2.79-2.78,11-11,3,3-2.49,7.38-1.41,3.51.07.07c1.12-1.39,2.48-3.22,3.83-4.58l3.19-3.19,2.79,2.78Z" />
        <path
            d="M448.67,724.67a6,6,0,1,1,.24-8.66A6,6,0,0,1,448.67,724.67Zm-5.43-5.43c-1.29,1.29-1.77,2.44-.88,3.32s2,.41,3.32-.88,1.77-2.44.88-3.33S444.53,718,443.24,719.24Z" />
        <path
            d="M439.85,713.88l-3,3L438,718l-2.17,2.17-1.39-1.19-2.55,1.87-2.41-2.41,2.21-2.21-1.94-1.93L432,712l1.93,1.94,2.91-2.9c.93-.94.76-1.72.22-2.26a3.54,3.54,0,0,0-.89-.61l1.67-2.55a9.35,9.35,0,0,1,2.3,1.7C442.39,709.5,441.92,711.8,439.85,713.88Z" />
        <path d="M422,711.6l-7.19-7.19,2.44-2.45,4.28,4.28,2.1-2.11L420,700.47l2.44-2.45,3.67,3.67,4-4,2.92,2.92Z" />
        <path
            d="M420.74,696.73a6,6,0,1,1,.23-8.65A5.95,5.95,0,0,1,420.74,696.73Zm-5.44-5.43c-1.29,1.29-1.76,2.45-.88,3.33s2,.41,3.33-.88,1.76-2.45.88-3.33S416.59,690,415.3,691.3Z" />
        <path
            d="M411.84,685.87l-5.22,5.23-2.92-2.92,4.85-4.85c1.09-1.09,1.09-1.63.51-2.21a1.89,1.89,0,0,0-2-.47l-5.46,5.46-2.92-2.92,8.48-8.48,2.38,2.37-.92,1.33.07.06a4.59,4.59,0,0,1,3.94,1.29C414.52,681.63,414,683.77,411.84,685.87Z" />
        <path
            d="M396.74,681.22l-2.38-2.37.82-1.22-.07-.07a5.46,5.46,0,0,1-3.9-1.46c-1.87-1.87-1.29-4,.81-6.11l5.23-5.23,2.92,2.92-4.86,4.85c-1.08,1.09-1.08,1.63-.51,2.21a2.51,2.51,0,0,0,1.94.64l5.57-5.56,2.92,2.92Z" />
        <path
            d="M391.48,667.48c-2.78,2.78-6.18,2.71-7.91,1a3.6,3.6,0,0,1-1.12-2.82L381.33,667l-2.75,2.75-2.92-2.92L387.47,655l2.38,2.37-.58,1,.07.06a4.52,4.52,0,0,1,3.12,1.16C394.57,661.67,394.23,664.73,391.48,667.48Zm-3.87-6.79-3.12,3.12a2.4,2.4,0,0,0,.74,1.56c.61.61,1.73.65,3.23-.85s1.63-2.58.85-3.36A1.65,1.65,0,0,0,387.61,660.69Z" />
    </g>
    <g id="inner" data-name="inner">
        <path
            d="M335.24,678v-5.71c0-3.41,1.25-6.34,5.18-6.34s5.48,3,5.48,6.24v1.68h4.94V678Zm7.39-5.62c0-1.63-.82-2.4-2.21-2.4s-1.92.92-1.92,2.5v1.39h4.13Z" />
        <path
            d="M347.43,664.89c-2.49,0-3.89-1.92-4.37-6.52-.86.09-1.25.62-1.25,1.68a6.58,6.58,0,0,0,1,3l-2.69,1.44a10.19,10.19,0,0,1-1.58-5.28c0-3.12,1.68-5,5.62-5h6.67v3.36l-1.15.29V658a4.89,4.89,0,0,1,1.44,3.31A3.53,3.53,0,0,1,347.43,664.89Zm-.29-6.52h-1.63c.29,2,.91,2.59,1.59,2.59s.86-.39.86-1.11A1.88,1.88,0,0,0,347.14,658.37Z" />
        <path
            d="M352.81,652.22a2.59,2.59,0,0,1-2.31-1.68h-.09a2.36,2.36,0,0,1-2.07,1.11,2.92,2.92,0,0,1-2.25-1.35H346a3.69,3.69,0,0,1-3.07,1.63c-3,0-4.37-2.49-4.37-5.13a6.23,6.23,0,0,1,.29-1.92v-4.47h3v1.73a4.51,4.51,0,0,1,1.25-.19c2.84,0,4,2.16,4,4.85a6,6,0,0,1-.17,1.34.76.76,0,0,0,.7.29c.52,0,.72-.48.72-1.68V645c0-3,.91-4.73,3.12-4.73,2.59,0,4.36,2.69,4.36,7C355.78,649.92,355,652.22,352.81,652.22Zm-9.89-6.72c-1.11,0-1.63.53-1.63,1.3s.52,1.29,1.63,1.29,1.68-.52,1.68-1.29S344.07,645.5,342.92,645.5Zm9.22-1.34c-.63,0-.72.57-.72,1.61v.93a6.14,6.14,0,0,1-.15,1.73,1.16,1.16,0,0,0,.87.43c.76,0,1.1-1,1.1-2.35S352.81,644.16,352.14,644.16Z" />
        <path
            d="M344.84,639.55a5.94,5.94,0,0,1-6.29-5.76c0-3.55,2.59-5.23,5.81-5.23a8,8,0,0,1,1.73.17v6.84a2.53,2.53,0,0,0,1.92-2.79,5,5,0,0,0-.72-2.45l2.45-1.34a8.1,8.1,0,0,1,1.39,4.37A5.9,5.9,0,0,1,344.84,639.55Zm-1.44-7.49a1.52,1.52,0,0,0-1.73,1.63,1.89,1.89,0,0,0,1.73,1.92Z" />
        <path
            d="M335.24,621.17v-4.23l7-3.45,3.5-1.49v-.1a56.49,56.49,0,0,1-5.95.53h-4.51v-3.94h15.6v4.23l-7,3.45-3.48,1.49v.1a58.74,58.74,0,0,1,5.95-.53h4.51v3.94Z" />
        <path
            d="M344.84,606a6,6,0,1,1,6.29-6A5.94,5.94,0,0,1,344.84,606Zm0-7.68c-1.82,0-3,.48-3,1.73s1.16,1.73,3,1.73,3-.49,3-1.73S346.66,598.32,344.84,598.32Z" />
        <path
            d="M346.23,592.13h-4.17v1.58H339l-.14-1.82-3.12-.48V588h3.12v-2.74h3.22V588h4.1c1.32,0,1.75-.67,1.75-1.44a3.34,3.34,0,0,0-.19-1.06l3-.62a9.1,9.1,0,0,1,.43,2.83C351.13,590.83,349.16,592.13,346.23,592.13Z" />
        <path d="M335.24,577.92V567.74h3.45v6h3v-5.18h3.46v5.18h5.71v4.13Z" />
        <path
            d="M344.84,566.5a6,6,0,1,1,6.29-6A5.94,5.94,0,0,1,344.84,566.5Zm0-7.69c-1.82,0-3,.48-3,1.73s1.16,1.73,3,1.73,3-.48,3-1.73S346.66,558.81,344.84,558.81Z" />
        <path
            d="M346.23,552.53h-7.39V548.4h6.86c1.54,0,1.92-.39,1.92-1.2a1.88,1.88,0,0,0-1.05-1.73h-7.73v-4.13h12v3.36l-1.58.29v.1a4.54,4.54,0,0,1,1.87,3.69C351.13,551.42,349.21,552.53,346.23,552.53Z" />
        <path
            d="M338.84,538.56V535.2l1.44-.29v-.09a5.47,5.47,0,0,1-1.73-3.8c0-2.64,1.92-3.74,4.9-3.74h7.39v4.13H344c-1.54,0-1.92.38-1.92,1.2a2.46,2.46,0,0,0,.91,1.82h7.87v4.13Z" />
        <path
            d="M344.84,525.12c-3.94,0-6.29-2.45-6.29-4.9a3.6,3.6,0,0,1,1.2-2.78l-1.73.14h-3.89v-4.13h16.71v3.36l-1.1.29v.1a4.58,4.58,0,0,1,1.39,3C351.13,523.2,348.73,525.12,344.84,525.12Zm2.06-7.54h-4.41a2.47,2.47,0,0,0-.58,1.64c0,.86.77,1.68,2.88,1.68s3-.68,3-1.78A1.65,1.65,0,0,0,346.9,517.58Z" />
    </g>
    <g id="inner" data-name="inner">
        <path
            d="M297.67,492.76l4-4c2.41-2.41,5.37-3.6,8.15-.82s1.77,6-.54,8.29l-1.19,1.18,3.5,3.5-2.92,2.92Zm9.19,1.25c1.16-1.15,1.12-2.27.14-3.26s-2-.71-3.12.41l-1,1,2.92,2.92Z" />
        <path
            d="M315.52,492.15c-1.77-1.77-1.39-4.11,1.53-7.71-.68-.54-1.33-.44-2.07.31a6.45,6.45,0,0,0-1.43,2.85l-2.92-.88a10.16,10.16,0,0,1,2.62-4.86c2.2-2.2,4.71-2.34,7.5.44l4.71,4.72-2.37,2.38-1-.61-.07.06a4.84,4.84,0,0,1-1.32,3.37A3.53,3.53,0,0,1,315.52,492.15Zm4.41-4.82-1.15-1.16c-1.19,1.6-1.19,2.48-.71,3s.88.34,1.39-.17A1.9,1.9,0,0,0,319.93,487.33Z" />
        <path
            d="M328.28,487a2.61,2.61,0,0,1-.44-2.82l-.07-.07a2.35,2.35,0,0,1-2.24-.67,2.94,2.94,0,0,1-.64-2.55l-.07-.07a3.7,3.7,0,0,1-3.33-1c-2.1-2.1-1.32-4.85.55-6.72a6,6,0,0,1,1.56-1.15l3.15-3.16,2.11,2.11-1.22,1.22a3.89,3.89,0,0,1,1,.74c2,2,1.29,4.35-.61,6.25a6,6,0,0,1-1.07.83.78.78,0,0,0,.29.7c.38.37.85.17,1.7-.68l1.27-1.27c2.12-2.13,4-2.7,5.55-1.14,1.84,1.83,1.19,5-1.83,8C332,487.46,329.81,488.52,328.28,487ZM326,475.24c-.78-.78-1.53-.78-2.07-.23s-.54,1.29.24,2.07,1.56.81,2.1.27S326.86,476.06,326,475.24Zm7.47,5.57c-.44-.44-.92-.1-1.65.63l-.66.66a6.51,6.51,0,0,1-1.32,1.12,1.16,1.16,0,0,0,.3.92c.55.54,1.46.1,2.45-.88S334,481.29,333.51,480.81Z" />
        <path
            d="M331.61,472.39a5.94,5.94,0,0,1-.38-8.52c2.52-2.51,5.54-1.86,7.81.41a8.56,8.56,0,0,1,1.1,1.34l-4.83,4.84a2.52,2.52,0,0,0,3.32-.61,4.9,4.9,0,0,0,1.22-2.24l2.69.78a8.08,8.08,0,0,1-2.11,4.07A5.89,5.89,0,0,1,331.61,472.39Zm4.27-6.31a1.51,1.51,0,0,0-2.37-.07,1.89,1.89,0,0,0-.14,2.58Z" />
        <path
            d="M337.82,452.61l3-3,7.37,2.48,3.53,1.42.07-.07a52.82,52.82,0,0,1-4.58-3.83L344,446.43l2.78-2.79,11,11-3,3-7.38-2.49-3.51-1.41-.07.07c1.39,1.12,3.22,2.48,4.58,3.83l3.19,3.19-2.78,2.79Z" />
        <path
            d="M355.33,448.67a6,6,0,1,1,8.66.24A6,6,0,0,1,355.33,448.67Zm5.43-5.43c-1.29-1.29-2.44-1.77-3.32-.88s-.41,2,.88,3.32,2.44,1.77,3.33.88S362.05,444.53,360.76,443.24Z" />
        <path
            d="M366.12,439.85l-2.95-3L362.05,438l-2.17-2.17,1.19-1.39-1.87-2.55,2.41-2.41,2.21,2.21,1.93-1.94L368,432,366.09,434l2.9,2.91c.94.93,1.72.76,2.26.22a3.54,3.54,0,0,0,.61-.89l2.55,1.67a9.35,9.35,0,0,1-1.7,2.3C370.5,442.39,368.19,441.92,366.12,439.85Z" />
        <path d="M368.4,422l7.19-7.19,2.45,2.44-4.28,4.28,2.11,2.1,3.66-3.66,2.45,2.44-3.67,3.67,4,4-2.92,2.92Z" />
        <path
            d="M383.27,420.74a6,6,0,1,1,8.65.23A5.94,5.94,0,0,1,383.27,420.74Zm5.43-5.44c-1.29-1.29-2.45-1.76-3.33-.88s-.41,2,.88,3.33,2.45,1.76,3.33.88S390,416.59,388.7,415.3Z" />
        <path
            d="M394.13,411.84l-5.23-5.22,2.92-2.92,4.85,4.85c1.09,1.09,1.63,1.09,2.21.51a1.89,1.89,0,0,0,.47-2l-5.46-5.46,2.92-2.92,8.48,8.48-2.37,2.38-1.33-.92-.06.07a4.59,4.59,0,0,1-1.29,3.94C398.37,414.52,396.23,414,394.13,411.84Z" />
        <path
            d="M398.78,396.74l2.37-2.38,1.22.82.07-.07a5.46,5.46,0,0,1,1.46-3.9c1.87-1.87,4-1.29,6.11.81l5.23,5.23-2.92,2.92-4.85-4.86c-1.09-1.08-1.63-1.08-2.21-.51a2.55,2.55,0,0,0-.65,1.94l5.57,5.57-2.92,2.92Z" />
        <path
            d="M412.52,391.48c-2.78-2.78-2.71-6.18-1-7.91a3.58,3.58,0,0,1,2.81-1.12L413,381.33l-2.75-2.75,2.92-2.92L425,387.47l-2.37,2.38-1-.58-.06.07a4.52,4.52,0,0,1-1.16,3.12C418.33,394.57,415.27,394.23,412.52,391.48Zm6.79-3.87-3.12-3.12a2.4,2.4,0,0,0-1.56.74c-.61.61-.65,1.73.85,3.23s2.58,1.63,3.36.85A1.65,1.65,0,0,0,419.31,387.61Z" />
    </g>
    <g id="inner" data-name="inner">
        <path
            d="M402.05,335.24h5.71c3.41,0,6.34,1.25,6.34,5.18s-3,5.48-6.24,5.48h-1.68v4.94h-4.13Zm5.62,7.39c1.63,0,2.4-.81,2.4-2.21s-.92-1.92-2.5-1.92h-1.39v4.13Z" />
        <path
            d="M415.1,347.43c0-2.49,1.92-3.89,6.53-4.37-.09-.86-.62-1.24-1.68-1.24a6.55,6.55,0,0,0-3,1l-1.44-2.68a10.11,10.11,0,0,1,5.28-1.59c3.12,0,5,1.68,5,5.62v6.67H422.4l-.29-1.15H422a4.89,4.89,0,0,1-3.31,1.44A3.54,3.54,0,0,1,415.1,347.43Zm6.53-.29v-1.63c-2,.29-2.59.91-2.59,1.59s.39.86,1.11.86A1.88,1.88,0,0,0,421.63,347.14Z" />
        <path
            d="M427.78,352.81a2.59,2.59,0,0,1,1.68-2.31v-.09a2.36,2.36,0,0,1-1.11-2.07,2.92,2.92,0,0,1,1.35-2.25V346a3.7,3.7,0,0,1-1.64-3.07c0-3,2.5-4.37,5.14-4.37a6.23,6.23,0,0,1,1.92.29h4.47v3h-1.73a4.37,4.37,0,0,1,.19,1.24c0,2.84-2.16,4-4.85,4a6,6,0,0,1-1.34-.17.76.76,0,0,0-.29.7c0,.52.48.72,1.68.72h1.8c3,0,4.73.91,4.73,3.12,0,2.59-2.69,4.36-7,4.36C430.08,355.78,427.78,355,427.78,352.81Zm8.06-.67c0-.63-.57-.72-1.61-.72h-.93a6.14,6.14,0,0,1-1.73-.15,1.16,1.16,0,0,0-.43.87c0,.76,1,1.1,2.35,1.1S435.84,352.81,435.84,352.14Zm-1.34-9.22c0-1.1-.53-1.63-1.3-1.63s-1.29.53-1.29,1.63.52,1.68,1.29,1.68S434.5,344.07,434.5,342.92Z" />
        <path
            d="M440.45,344.84a5.94,5.94,0,0,1,5.76-6.29c3.55,0,5.23,2.59,5.23,5.81a8,8,0,0,1-.17,1.73h-6.84a2.53,2.53,0,0,0,2.79,1.92,5,5,0,0,0,2.45-.72l1.34,2.45a8.1,8.1,0,0,1-4.37,1.39A5.9,5.9,0,0,1,440.45,344.84Zm7.49-1.44a1.52,1.52,0,0,0-1.63-1.73,1.89,1.89,0,0,0-1.92,1.73Z" />
        <path
            d="M458.83,335.24h4.23l3.45,7,1.49,3.5h.1a56.49,56.49,0,0,1-.53-5.95v-4.51h3.94v15.6h-4.23l-3.45-7-1.49-3.48h-.1a58.74,58.74,0,0,1,.53,5.95v4.51h-3.94Z" />
        <path
            d="M474,344.84a6,6,0,1,1,5.95,6.29A5.95,5.95,0,0,1,474,344.84Zm7.68,0c0-1.82-.48-3-1.73-3s-1.73,1.16-1.73,3,.49,3,1.73,3S481.68,346.66,481.68,344.84Z" />
        <path
            d="M487.87,346.23v-4.17h-1.58V339l1.82-.14.48-3.12H492v3.12h2.74v3.22H492v4.1c0,1.32.67,1.75,1.44,1.75a3.4,3.4,0,0,0,1.06-.19l.62,3a9.1,9.1,0,0,1-2.83.43C489.17,351.13,487.87,349.16,487.87,346.23Z" />
        <path d="M502.08,335.24h10.18v3.46h-6.05v3h5.18v3.46h-5.18v5.71h-4.13Z" />
        <path
            d="M513.5,344.84a6,6,0,1,1,6,6.29A5.95,5.95,0,0,1,513.5,344.84Zm7.69,0c0-1.82-.48-3-1.73-3s-1.73,1.16-1.73,3,.48,3,1.73,3S521.19,346.66,521.19,344.84Z" />
        <path
            d="M527.47,346.23v-7.39h4.13v6.86c0,1.54.38,1.92,1.2,1.92a1.88,1.88,0,0,0,1.73-1.05v-7.73h4.13v12H535.3l-.29-1.58h-.1a4.54,4.54,0,0,1-3.69,1.87C528.58,351.13,527.47,349.21,527.47,346.23Z" />
        <path
            d="M541.44,338.84h3.36l.29,1.44h.09a5.43,5.43,0,0,1,3.8-1.73c2.64,0,3.74,1.92,3.74,4.9v7.39h-4.13V344c0-1.54-.38-1.92-1.2-1.92a2.46,2.46,0,0,0-1.82.91v7.87h-4.13Z" />
        <path
            d="M554.88,344.84c0-3.94,2.45-6.29,4.9-6.29a3.6,3.6,0,0,1,2.78,1.2l-.14-1.73v-3.89h4.12v16.71h-3.36l-.28-1.1h-.1a4.58,4.58,0,0,1-3,1.39C556.8,351.13,554.88,348.73,554.88,344.84Zm7.54,2.06v-4.41a2.47,2.47,0,0,0-1.64-.58c-.86,0-1.68.77-1.68,2.88s.68,3,1.78,3A1.65,1.65,0,0,0,562.42,346.9Z" />
    </g>
    <g id="inner" data-name="inner">
        <path
            d="M587.24,297.67l4,4c2.41,2.41,3.6,5.37.82,8.15s-6,1.77-8.29-.54l-1.18-1.19-3.5,3.5-2.92-2.92ZM586,306.86c1.15,1.16,2.27,1.12,3.26.14s.71-2-.41-3.12l-1-1-2.92,2.92Z" />
        <path
            d="M587.85,315.52c1.77-1.77,4.11-1.39,7.71,1.53.54-.68.44-1.33-.31-2.07a6.45,6.45,0,0,0-2.85-1.43l.88-2.92a10.16,10.16,0,0,1,4.86,2.62c2.2,2.2,2.34,4.71-.44,7.5L593,325.46l-2.38-2.37.61-1-.06-.07a4.84,4.84,0,0,1-3.37-1.32A3.53,3.53,0,0,1,587.85,315.52Zm4.82,4.41,1.16-1.15c-1.6-1.19-2.48-1.19-3-.71s-.34.88.17,1.39A1.9,1.9,0,0,0,592.67,319.93Z" />
        <path
            d="M593,328.28a2.61,2.61,0,0,1,2.82-.44l.07-.07a2.35,2.35,0,0,1,.67-2.24,2.94,2.94,0,0,1,2.55-.64l.07-.07a3.7,3.7,0,0,1,1-3.33c2.1-2.1,4.85-1.32,6.72.55a6,6,0,0,1,1.15,1.56l3.16,3.15-2.11,2.11-1.22-1.22a3.89,3.89,0,0,1-.74,1c-2,2-4.35,1.29-6.25-.61a6,6,0,0,1-.83-1.07.78.78,0,0,0-.7.29c-.37.38-.17.85.68,1.7l1.27,1.27c2.13,2.12,2.7,4,1.14,5.55-1.83,1.84-5,1.19-8-1.83C592.54,332,591.48,329.81,593,328.28Zm6.18,5.23c.44-.44.1-.92-.63-1.65l-.66-.66a6.51,6.51,0,0,1-1.12-1.32,1.16,1.16,0,0,0-.92.3c-.54.55-.1,1.46.88,2.45S598.71,334,599.19,333.51Zm5.57-7.47c.78-.78.78-1.53.23-2.07s-1.29-.54-2.07.24-.81,1.56-.27,2.1S603.94,326.86,604.76,326Z" />
        <path
            d="M607.61,331.61a5.94,5.94,0,0,1,8.52-.38c2.51,2.52,1.86,5.54-.41,7.81a8.56,8.56,0,0,1-1.34,1.1l-4.84-4.83a2.52,2.52,0,0,0,.61,3.32,4.9,4.9,0,0,0,2.24,1.22l-.78,2.69a8.08,8.08,0,0,1-4.07-2.11A5.89,5.89,0,0,1,607.61,331.61Zm6.31,4.27a1.51,1.51,0,0,0,.07-2.37,1.89,1.89,0,0,0-2.58-.14Z" />
        <path
            d="M627.39,337.82l3,3-2.48,7.37-1.42,3.53.07.07a52.82,52.82,0,0,1,3.83-4.58l3.19-3.19,2.79,2.78-11,11-3-3,2.49-7.38,1.41-3.51-.07-.07c-1.12,1.39-2.48,3.22-3.83,4.58l-3.19,3.19-2.79-2.78Z" />
        <path
            d="M631.33,355.33a6,6,0,1,1-.24,8.66A6,6,0,0,1,631.33,355.33Zm5.43,5.43c1.29-1.29,1.77-2.44.88-3.32s-2-.41-3.32.88-1.77,2.44-.88,3.33S635.47,362.05,636.76,360.76Z" />
        <path
            d="M640.15,366.12l3-2.95L642,362.05l2.17-2.17,1.39,1.19,2.55-1.87,2.41,2.41-2.21,2.21,1.94,1.93L648,368,646,366.09l-2.91,2.9c-.93.94-.76,1.72-.22,2.26a3.54,3.54,0,0,0,.89.61l-1.67,2.55a9.35,9.35,0,0,1-2.3-1.7C637.61,370.5,638.08,368.19,640.15,366.12Z" />
        <path d="M658,368.4l7.19,7.19L662.73,378l-4.28-4.28-2.1,2.11,3.66,3.66L657.57,382l-3.67-3.67-4,4-2.92-2.92Z" />
        <path
            d="M659.26,383.27a6,6,0,1,1-.23,8.65A5.94,5.94,0,0,1,659.26,383.27Zm5.44,5.43c1.29-1.29,1.76-2.45.88-3.33s-2-.41-3.33.88-1.76,2.45-.88,3.33S663.41,390,664.7,388.7Z" />
        <path
            d="M668.16,394.13l5.22-5.23,2.92,2.92-4.85,4.85c-1.09,1.09-1.09,1.63-.51,2.21a1.89,1.89,0,0,0,2,.47l5.46-5.46,2.92,2.92-8.48,8.48-2.38-2.37.92-1.33-.07-.06a4.59,4.59,0,0,1-3.94-1.29C665.48,398.37,666.05,396.23,668.16,394.13Z" />
        <path
            d="M683.26,398.78l2.38,2.37-.82,1.22.07.07a5.46,5.46,0,0,1,3.9,1.46c1.87,1.87,1.29,4-.81,6.11l-5.23,5.23-2.92-2.92,4.86-4.85c1.08-1.09,1.08-1.63.51-2.21a2.55,2.55,0,0,0-1.94-.65l-5.57,5.57-2.92-2.92Z" />
        <path
            d="M688.52,412.52c2.78-2.78,6.18-2.71,7.91-1a3.58,3.58,0,0,1,1.12,2.81l1.12-1.32,2.75-2.75,2.92,2.92L692.53,425l-2.38-2.37.58-1-.07-.06a4.52,4.52,0,0,1-3.12-1.16C685.43,418.33,685.77,415.27,688.52,412.52Zm3.87,6.79,3.12-3.12a2.4,2.4,0,0,0-.74-1.56c-.61-.61-1.73-.65-3.23.85s-1.63,2.58-.85,3.36A1.65,1.65,0,0,0,692.39,419.31Z" />
    </g>
    <g id="inner" data-name="inner">
        <path
            d="M744.76,402.05v5.71c0,3.41-1.25,6.34-5.18,6.34s-5.48-3-5.48-6.24v-1.68h-4.94v-4.13Zm-7.39,5.62c0,1.63.82,2.4,2.21,2.4s1.92-.92,1.92-2.5v-1.39h-4.13Z" />
        <path
            d="M732.57,415.1c2.49,0,3.89,1.92,4.37,6.53.86-.09,1.25-.62,1.25-1.68a6.58,6.58,0,0,0-1-3l2.69-1.44a10.19,10.19,0,0,1,1.58,5.28c0,3.12-1.68,5-5.62,5h-6.67V422.4l1.15-.29V422a4.9,4.9,0,0,1-1.44-3.32A3.53,3.53,0,0,1,732.57,415.1Zm.29,6.53h1.63c-.29-2-.91-2.59-1.59-2.59s-.86.38-.86,1.11A1.88,1.88,0,0,0,732.86,421.63Z" />
        <path
            d="M727.19,427.78a2.59,2.59,0,0,1,2.31,1.68h.09a2.36,2.36,0,0,1,2.07-1.11,2.92,2.92,0,0,1,2.25,1.35h.1a3.7,3.7,0,0,1,3.07-1.64c3,0,4.37,2.5,4.37,5.14a6.28,6.28,0,0,1-.29,1.92v4.47h-3v-1.73a4.51,4.51,0,0,1-1.25.19c-2.84,0-4-2.16-4-4.85a6,6,0,0,1,.17-1.34.76.76,0,0,0-.7-.29c-.52,0-.72.48-.72,1.68v1.8c0,3-.91,4.73-3.12,4.73-2.59,0-4.36-2.69-4.36-7C724.22,430.08,725,427.78,727.19,427.78Zm.67,8.06c.63,0,.72-.58.72-1.61v-.93a6.09,6.09,0,0,1,.15-1.73,1.16,1.16,0,0,0-.87-.43c-.76,0-1.1,1-1.1,2.35S727.19,435.84,727.86,435.84Zm9.22-1.34c1.11,0,1.63-.53,1.63-1.3s-.52-1.3-1.63-1.3-1.68.53-1.68,1.3S735.93,434.5,737.08,434.5Z" />
        <path
            d="M735.16,440.45a5.94,5.94,0,0,1,6.29,5.76c0,3.55-2.59,5.23-5.81,5.23a8,8,0,0,1-1.73-.17v-6.84a2.53,2.53,0,0,0-1.92,2.79,5,5,0,0,0,.72,2.45L730.26,451a8.13,8.13,0,0,1-1.39-4.37A5.9,5.9,0,0,1,735.16,440.45Zm1.44,7.49a1.52,1.52,0,0,0,1.73-1.64,1.9,1.9,0,0,0-1.73-1.92Z" />
        <path
            d="M744.76,458.83v4.23l-7,3.45L734.3,468v.1a53.94,53.94,0,0,1,6-.53h4.51v3.94h-15.6v-4.23l7-3.46,3.48-1.48v-.1a58.74,58.74,0,0,1-6,.53h-4.51v-3.94Z" />
        <path
            d="M735.16,474a6,6,0,1,1-6.29,5.95A5.94,5.94,0,0,1,735.16,474Zm0,7.68c1.82,0,3-.48,3-1.73s-1.16-1.73-3-1.73-3,.48-3,1.73S733.34,481.68,735.16,481.68Z" />
        <path
            d="M733.77,487.87h4.17v-1.58H741l.14,1.82,3.12.48V492h-3.12v2.74h-3.22V492h-4.1c-1.32,0-1.75.67-1.75,1.44a3.4,3.4,0,0,0,.19,1.06l-3,.62a9.1,9.1,0,0,1-.43-2.83C728.87,489.17,730.84,487.87,733.77,487.87Z" />
        <path d="M744.76,502.08v10.18h-3.45v-6.05h-3v5.18h-3.46v-5.18h-5.71v-4.13Z" />
        <path
            d="M735.16,513.5a6,6,0,1,1-6.29,6A5.94,5.94,0,0,1,735.16,513.5Zm0,7.68c1.82,0,3-.48,3-1.72s-1.16-1.73-3-1.73-3,.48-3,1.73S733.34,521.18,735.16,521.18Z" />
        <path
            d="M733.77,527.47h7.39v4.13H734.3c-1.54,0-1.92.38-1.92,1.2a1.88,1.88,0,0,0,1,1.73h7.73v4.13h-12V535.3l1.58-.29v-.1a4.54,4.54,0,0,1-1.87-3.69C728.87,528.58,730.79,527.47,733.77,527.47Z" />
        <path
            d="M741.16,541.44v3.36l-1.44.29v.09a5.43,5.43,0,0,1,1.73,3.8c0,2.64-1.92,3.74-4.9,3.74h-7.39v-4.13H736c1.54,0,1.92-.38,1.92-1.2a2.46,2.46,0,0,0-.91-1.82h-7.87v-4.13Z" />
        <path
            d="M735.16,554.88c3.94,0,6.29,2.45,6.29,4.9a3.6,3.6,0,0,1-1.2,2.78l1.73-.14h3.89v4.12H729.16v-3.36l1.1-.28v-.1a4.58,4.58,0,0,1-1.39-3C728.87,556.8,731.27,554.88,735.16,554.88Zm-2.06,7.54h4.41a2.47,2.47,0,0,0,.58-1.64c0-.86-.77-1.68-2.88-1.68s-3,.68-3,1.78A1.65,1.65,0,0,0,733.1,562.42Z" />
    </g>
    <g id="inner" data-name="inner">
        <path
            d="M782.33,587.24l-4,4c-2.41,2.41-5.36,3.6-8.14.82s-1.77-6,.54-8.29l1.19-1.18-3.5-3.5,2.92-2.92Zm-9.2-1.25c-1.15,1.15-1.12,2.27-.13,3.26s2,.71,3.12-.41l1-1-2.92-2.92Z" />
        <path
            d="M764.48,587.85c1.77,1.77,1.39,4.11-1.53,7.71.68.54,1.33.44,2.07-.31a6.56,6.56,0,0,0,1.43-2.85l2.92.88a10.16,10.16,0,0,1-2.62,4.86c-2.2,2.2-4.71,2.34-7.5-.44L754.54,593l2.37-2.38,1,.61.07-.07a4.84,4.84,0,0,1,1.32-3.36A3.53,3.53,0,0,1,764.48,587.85Zm-4.41,4.82,1.15,1.16c1.19-1.6,1.19-2.48.71-3s-.88-.34-1.39.17A1.9,1.9,0,0,0,760.07,592.67Z" />
        <path
            d="M751.72,593a2.61,2.61,0,0,1,.44,2.82l.07.07a2.37,2.37,0,0,1,2.24.67,3,3,0,0,1,.64,2.55l.07.07a3.7,3.7,0,0,1,3.33,1c2.1,2.1,1.32,4.85-.55,6.72a6,6,0,0,1-1.56,1.15l-3.15,3.16-2.11-2.11,1.22-1.22a4.09,4.09,0,0,1-1-.74c-2-2-1.29-4.35.62-6.25a6,6,0,0,1,1.07-.83.81.81,0,0,0-.29-.7c-.38-.37-.85-.17-1.7.68l-1.27,1.27c-2.13,2.13-4,2.7-5.55,1.14-1.84-1.83-1.19-5,1.83-8C748,592.54,750.19,591.48,751.72,593Zm-5.23,6.18c.44.44.92.1,1.65-.63l.66-.66a6.51,6.51,0,0,1,1.32-1.12,1.2,1.2,0,0,0-.3-.92c-.55-.54-1.46-.1-2.45.88S746,598.71,746.49,599.19Zm7.47,5.57c.78.78,1.53.78,2.07.23s.54-1.29-.24-2.07-1.56-.81-2.1-.27S753.14,603.94,754,604.76Z" />
        <path
            d="M748.39,607.61a5.94,5.94,0,0,1,.38,8.52c-2.52,2.51-5.54,1.86-7.81-.41a8.56,8.56,0,0,1-1.1-1.34l4.83-4.84a2.52,2.52,0,0,0-3.32.61,5,5,0,0,0-1.23,2.24l-2.68-.78a8.08,8.08,0,0,1,2.11-4.07A5.89,5.89,0,0,1,748.39,607.61Zm-4.27,6.31a1.51,1.51,0,0,0,2.37.07,1.89,1.89,0,0,0,.14-2.58Z" />
        <path
            d="M742.18,627.39l-3,3-7.37-2.48-3.53-1.42-.07.07a54.36,54.36,0,0,1,4.58,3.83l3.19,3.19-2.78,2.79-11-11,3-3,7.38,2.49,3.51,1.41.07-.07c-1.39-1.12-3.22-2.48-4.58-3.83l-3.19-3.19,2.78-2.79Z" />
        <path
            d="M724.67,631.33a6,6,0,1,1-8.66-.24A6,6,0,0,1,724.67,631.33Zm-5.43,5.43c1.29,1.29,2.44,1.77,3.32.88s.41-2-.88-3.32-2.44-1.77-3.33-.88S718,635.47,719.24,636.76Z" />
        <path
            d="M713.88,640.15l3,3L718,642l2.17,2.17-1.19,1.39,1.87,2.55-2.41,2.41-2.21-2.21-1.93,1.94L712,648l1.94-1.93-2.9-2.91c-.94-.93-1.72-.76-2.26-.22a3.54,3.54,0,0,0-.61.89l-2.55-1.67a9.35,9.35,0,0,1,1.7-2.3C709.5,637.61,711.8,638.08,713.88,640.15Z" />
        <path d="M711.6,658l-7.19,7.2L702,662.73l4.28-4.28-2.11-2.1L700.47,660,698,657.57l3.67-3.67-4-4,2.92-2.92Z" />
        <path
            d="M696.73,659.26a6,6,0,1,1-8.65-.23A5.95,5.95,0,0,1,696.73,659.26Zm-5.43,5.44c1.29,1.29,2.45,1.76,3.33.88s.41-2-.88-3.33-2.45-1.76-3.33-.88S690,663.41,691.3,664.7Z" />
        <path
            d="M685.87,668.16l5.23,5.22-2.92,2.92-4.85-4.85c-1.09-1.09-1.63-1.09-2.21-.51a1.89,1.89,0,0,0-.47,2l5.46,5.46-2.92,2.92-8.48-8.48,2.37-2.38,1.33.92.06-.07a4.59,4.59,0,0,1,1.29-3.94C681.63,665.47,683.77,666.05,685.87,668.16Z" />
        <path
            d="M681.22,683.26l-2.37,2.38-1.22-.82-.07.07a5.46,5.46,0,0,1-1.46,3.9c-1.87,1.87-4,1.29-6.11-.81l-5.23-5.23,2.92-2.92,4.85,4.86c1.09,1.08,1.63,1.08,2.21.51a2.51,2.51,0,0,0,.64-1.94l-5.56-5.57,2.92-2.91Z" />
        <path
            d="M667.48,688.52c2.78,2.78,2.71,6.18,1,7.91a3.6,3.6,0,0,1-2.82,1.12l1.33,1.12,2.75,2.75-2.92,2.92L655,692.53l2.37-2.38,1,.58.06-.07a4.52,4.52,0,0,1,1.16-3.12C661.67,685.43,664.73,685.77,667.48,688.52Zm-6.79,3.87,3.12,3.12a2.4,2.4,0,0,0,1.56-.74c.61-.61.65-1.73-.85-3.23s-2.58-1.63-3.36-.85A1.65,1.65,0,0,0,660.69,692.39Z" />
    </g>
</svg>