<svg width="48" height="48" viewBox="0 0 48 48" fill="none" xmlns="http://www.w3.org/2000/svg" style="cursor:pointer;">
    <circle cx="24" cy="24" r="24" fill="currentColor" />
    <circle cx="23.7363" cy="23.7363" r="18.989" fill="currentColor" />
    <path
        d="M23.348 35.6108C21.7501 35.6108 20.2985 35.3407 18.9932 34.8006C17.7104 34.238 16.6639 33.4728 15.8537 32.5051C15.066 31.5373 14.5709 30.4008 14.3683 29.0955L14.9085 28.9267C15.0435 30.142 15.4936 31.2222 16.2588 32.1675C17.0465 33.0902 18.048 33.8216 19.2633 34.3618C20.5011 34.8794 21.8627 35.1382 23.348 35.1382C24.6309 35.1382 25.8236 34.9356 26.9264 34.5306C28.0517 34.1255 28.9632 33.5178 29.6608 32.7076C30.3585 31.8749 30.7073 30.8622 30.7073 29.6694C30.7073 28.4991 30.2347 27.5201 29.2895 26.7324C28.3668 25.9447 27.0389 25.3258 25.306 24.8757L22.6729 24.1668C20.985 23.7167 19.6796 23.0077 18.7569 22.04C17.8567 21.0723 17.4066 19.8907 17.4066 18.4954C17.4066 17.3926 17.6992 16.4136 18.2843 15.5584C18.892 14.6807 19.7584 13.983 20.8837 13.4654C22.0315 12.9478 23.393 12.689 24.9684 12.689C26.9939 12.689 28.7269 13.1391 30.1672 14.0393C31.6076 14.917 32.5528 16.2673 33.0029 18.0903L32.4965 18.2591C32.0239 16.5036 31.1237 15.2208 29.7959 14.4106C28.4905 13.5779 26.8701 13.1616 24.9347 13.1616C23.5168 13.1616 22.279 13.3979 21.2213 13.8705C20.186 14.3431 19.3758 14.9845 18.7907 15.7947C18.228 16.5824 17.9467 17.4714 17.9467 18.4616C17.9467 19.6994 18.3518 20.7684 19.162 21.6687C19.9947 22.5464 21.2213 23.2103 22.8417 23.6604L25.3398 24.3356C27.2527 24.8307 28.7156 25.5171 29.7283 26.3948C30.7411 27.2725 31.2475 28.3415 31.2475 29.6018C31.2475 30.9297 30.8761 32.0437 30.1334 32.9439C29.4133 33.8216 28.4568 34.4855 27.264 34.9356C26.0712 35.3858 24.7659 35.6108 23.348 35.6108Z"
        fill="#3FF3B2" />
    <g style="mix-blend-mode:multiply">
        <ellipse cx="36.3956" cy="31.6483" rx="9.49451" ry="9.49451" fill="#3FF3B2" />
    </g>
</svg>