<svg width="24" height="20" viewBox="0 0 24 20" fill="none" xmlns="http://www.w3.org/2000/svg">
    <path
        d="M2.8464 3.9168C2.8611 3.77072 2.84141 3.62322 2.7889 3.48611C2.73639 3.34901 2.65252 3.22609 2.544 3.1272L0.3024 0.4068V0H7.26L12.6384 11.886L17.3664 0H24V0.4068L22.0836 2.256C22.0024 2.3187 21.9397 2.40227 21.9023 2.4978C21.8649 2.59333 21.8542 2.69723 21.8712 2.7984V16.3992C21.8542 16.5004 21.8649 16.6043 21.9023 16.6998C21.9397 16.7953 22.0024 16.8789 22.0836 16.9416L23.9556 18.792V19.2H14.5428V18.7932L16.482 16.8972C16.6728 16.7052 16.6728 16.6488 16.6728 16.356V5.3616L11.2824 19.1544H10.5552L4.2792 5.3616V14.6064C4.2276 14.994 4.356 15.3864 4.6272 15.6672L7.1484 18.7488V19.1544H0V18.7488L2.52 15.6672C2.65334 15.5281 2.75229 15.3597 2.80896 15.1755C2.86564 14.9913 2.87846 14.7964 2.8464 14.6064V3.9168Z"
        fill="currentColor" />
</svg>