{"asset":{"version":"2.0","generator":"VECTARY"},"nodes":[{"translation":[0,0,0],"scale":[0.001,0.001,0.001],"rotation":[-0.7071067811865475,0,0,0.7071067811865476],"name":"human_brain_1123","mesh":0}],"materials":[{"pbrMetallicRoughness":{"baseColorFactor":[0.04614884242235095,0.8993845130465294,0.4534564754857306,1],"metallicFactor":0.11,"roughnessFactor":0.2},"name":"Hampton","emissiveFactor":[0.07,0.07,0.07],"alphaMode":"OPAQUE","doubleSided":false}],"meshes":[{"primitives":[{"mode":4,"attributes":{"POSITION":1,"NORMAL":2},"material":0,"indices":0}]}],"accessors":[{"bufferView":0,"byteOffset":0,"componentType":5125,"count":678558,"type":"SCALAR"},{"bufferView":1,"byteOffset":0,"componentType":5126,"count":113103,"max":[6.452750205993652,7.857550144195557,11.406997680664062],"min":[-6.452750205993652,-7.857550144195557,-9.005130193571608e-16],"type":"VEC3"},{"bufferView":2,"byteOffset":0,"componentType":5126,"count":113103,"type":"VEC3"}],"bufferViews":[{"buffer":0,"byteOffset":0,"byteLength":2714232,"target":34963},{"buffer":0,"byteOffset":2714232,"byteLength":1357236,"target":34962},{"buffer":0,"byteOffset":4071468,"byteLength":1357236,"target":34962}],"scene":0,"scenes":[{"nodes":[0],"name":"Project Name"}],"extensionsUsed":["KHR_texture_transform"],"buffers":[{"byteLength":5428704,"uri":"ProjectName.bin"}]}